<?xml version="1.0" encoding="utf-8"?>
<!-- Generator: Adobe Illustrator 16.0.3, SVG Export Plug-In . SVG Version: 6.00 Build 0)  -->
<!DOCTYPE svg PUBLIC "-//W3C//DTD SVG 1.1//EN" "http://www.w3.org/Graphics/SVG/1.1/DTD/svg11.dtd">
<svg version="1.1" id="レイヤー_1" xmlns="http://www.w3.org/2000/svg" xmlns:xlink="http://www.w3.org/1999/xlink" x="0px"
	 y="0px" width="1080px" height="320px" viewBox="0 0 1080 320" enable-background="new 0 0 1080 320" xml:space="preserve">
<g>
	<path fill="#8C715A" d="M-0.125,173.353c0,0,50.125-0.521,103.125,2.603c179.667,15.438,174.5-15.958,240.5,2.08
		c102,17.173,126-8.325,230.167-5.823c92.333,8.426,166,19.181,228.666,8.08c36.201-6.413,55.334-17.346,133.667-15.785
		c63.667,3.644,29,6.766,143.876,8.847c0-20.814,0.124,67.647,0.124,67.647H0L-0.125,173.353z"/>
	<rect y="231" fill="#8C715A" width="1080" height="89"/>
</g>
<path fill="#66B62F" d="M40.877,199.153c0,0,1.709-10.959,10.709-12.291c9-1.334,10.666-3,11.666-1.334
	c1,1.667-1.75,12.875-8.625,15.875c-6.531,2.851-11.375,0.25-12.875,2.25c-1.166,1.556,0.167,16.875,0.167,16.875h-3.334
	c0,0,1.167-14.708,0.167-15.375c-1-0.666-3.167,0.375-9.5-0.625s-7.667-9.458-9-11.125c-2-2.5,4.5-1.375,8.25-0.75
	c3.617,0.604,8.354,2.598,10.625,8.5C41.002,206.028,40.877,199.153,40.877,199.153z"/>
</svg>
